Coordinates
version=1
nRows=9
nColumns=63
inDegrees=yes

Units are S.I. units (second, meters, Newtons, ...)
If the header above contains a line with 'inDegrees', this indicates whether rotational values are in degrees (yes) or radians (no).

endheader
time	pelvis_tilt	pelvis_list	pelvis_rotation	pelvis_tx	pelvis_ty	pelvis_tz	hip_flexion_r	hip_adduction_r	hip_rotation_r	knee_angle_r	knee_angle_r_beta	ankle_angle_r	subtalar_angle_r	mtp_angle_r	hip_flexion_l	hip_adduction_l	hip_rotation_l	knee_angle_l	knee_angle_l_beta	ankle_angle_l	subtalar_angle_l	mtp_angle_l	L5_S1_Flex_Ext	L5_S1_Lat_Bending	L5_S1_axial_rotation	L4_L5_Flex_Ext	L4_L5_Lat_Bending	L4_L5_axial_rotation	L3_L4_Flex_Ext	L3_L4_Lat_Bending	L3_L4_axial_rotation	L2_L3_Flex_Ext	L2_L3_Lat_Bending	L2_L3_axial_rotation	L1_L2_Flex_Ext	L1_L2_Lat_Bending	L1_L2_axial_rotation	L1_T12_Flex_Ext	L1_T12_Lat_Bending	L1_T12_axial_rotation	Abs_r3	Abs_r2	Abs_r1	Abs_t1	Abs_t2	neck_flexion	neck_bending	neck_rotation	arm_flex_r	arm_add_r	arm_rot_r	elbow_flex_r	pro_sup_r	wrist_flex_r	wrist_dev_r	arm_flex_l	arm_add_l	arm_rot_l	elbow_flex_l	pro_sup_l	wrist_flex_l	wrist_dev_l
      0.03333333	      3.17162414	     -2.69547425	    169.10309482	      2.89959295	      0.89389803	      0.17035020	      1.64385620	      1.50772486	      8.88646409	      8.18586618	      0.14287032	     18.41609655	    -15.54284016	      0.00000000	      2.66206583	     -2.47852655	    -27.23557733	     15.18920386	      0.26510162	     20.94707258	      9.52248712	      0.00000000	     -0.00259842	     -0.18395891	      0.83654552	     -0.00482554	     -0.24466535	      0.88882962	     -0.00426895	     -0.44727770	      0.88882962	     -0.00296974	     -0.44727770	      0.73197733	     -0.00241290	     -0.37512902	      0.67969324	     -0.00148474	     -0.28495236	      0.62740914	     -0.01856029	     -2.08098002	      4.65261523	      0.00000000	      0.00000000	     -0.00000000	      0.00000000	      0.00000000	     -6.61722777	     -2.62626603	    -11.13763074	     30.85145407	     40.48092971	      0.00000000	      5.42379594	     -2.81417542	     -5.00720512	     10.94007711	     27.17825643	     46.08194307	      0.00000000	      5.42379594
      0.06666667	      3.15984315	     -2.72310221	    168.98445823	      2.89955871	      0.89393405	      0.17022647	      1.65737074	      1.48742837	      9.02680581	      8.21517831	      0.14338191	     18.28652849	    -15.70895508	      0.00000000	      2.59592073	     -2.42549411	    -27.32718887	     15.08962298	      0.26336360	     20.91234668	      9.52494964	      0.00000000	     -0.00316765	     -0.18666828	      0.86118822	     -0.00588264	     -0.24826882	      0.91501248	     -0.00520413	     -0.45386526	      0.91501248	     -0.00362031	     -0.45386526	      0.75353969	     -0.00294148	     -0.38065396	      0.69971543	     -0.00180999	     -0.28914917	      0.64589116	     -0.02262620	     -2.11162895	      4.78967052	      0.00000000	      0.00000000	     -0.00000000	      0.00000000	      0.00000000	     -6.64142233	     -2.64340549	    -11.14004053	     30.85488645	     40.73588321	      0.00000000	      5.33345312	     -2.83505032	     -5.03447990	     11.01074083	     27.22567509	     46.10359221	      0.00000000	      5.33345312
      0.10000000	      3.16030580	     -2.70519677	    169.00390685	      2.89953202	      0.89394031	      0.17027682	      1.61572988	      1.50163236	      9.04524712	      8.14080130	      0.14208379	     18.25224820	    -15.74544661	      0.00000000	      2.62727353	     -2.40452302	    -26.92498643	     15.11752670	      0.26385062	     20.87854325	      9.01032861	      0.00000000	     -0.00304558	     -0.18468093	      0.85802553	     -0.00565595	     -0.24562564	      0.91165213	     -0.00500359	     -0.44903321	      0.91165213	     -0.00348080	     -0.44903321	      0.75077234	     -0.00282813	     -0.37660135	      0.69714574	     -0.00174025	     -0.28607076	      0.64351915	     -0.02175430	     -2.08914761	      4.77208060	      0.00000000	      0.00000000	     -0.00000000	      0.00000000	      0.00000000	     -6.63640844	     -2.68355933	    -11.06248457	     30.83444520	     41.26923150	      0.00000000	      5.23272468	     -2.81169024	     -5.01896182	     11.02880652	     27.15901112	     46.07644611	      0.00000000	      5.23272468
      0.13333333	      3.16575814	     -2.70626597	    169.01150340	      2.89958487	      0.89391827	      0.17027988	      1.63562522	      1.50567700	      9.06742000	      8.16587672	      0.14252144	     18.24623251	    -15.80535751	      0.00000000	      2.63547306	     -2.42371725	    -27.03669602	     15.12991689	      0.26406687	     20.90750395	      9.17562439	      0.00000000	     -0.00357634	     -0.18463582	      0.85781061	     -0.00664163	     -0.24556564	      0.91142377	     -0.00587557	     -0.44892354	      0.91142377	     -0.00408740	     -0.44892354	      0.75058428	     -0.00332099	     -0.37650937	      0.69697112	     -0.00204352	     -0.28600089	      0.64335796	     -0.02554546	     -2.08863735	      4.77088526	      0.00000000	      0.00000000	     -0.00000000	      0.00000000	      0.00000000	     -6.64248452	     -2.64348584	    -11.24789726	     30.86245936	     41.37830144	      0.00000000	      5.18843555	     -2.81932567	     -5.02029861	     10.98910224	     27.19094585	     46.07209226	      0.00000000	      5.18843555
      0.16666667	      3.17072269	     -2.69367198	    169.05588013	      2.89955007	      0.89389990	      0.17032796	      1.64471480	      1.51146837	      8.95828816	      8.18821704	      0.14291135	     18.32297756	    -15.66407205	      0.00000000	      2.66257396	     -2.46136797	    -27.07964509	     15.19509837	      0.26520450	     20.95508151	      9.30534529	      0.00000000	     -0.00286535	     -0.18322628	      0.84981440	     -0.00532124	     -0.24369095	      0.90292780	     -0.00470748	     -0.44549638	      0.90292780	     -0.00327481	     -0.44549638	      0.74358760	     -0.00266076	     -0.37363503	      0.69047420	     -0.00163726	     -0.28381751	      0.63736080	     -0.02046691	     -2.07269233	      4.72641276	      0.00000000	      0.00000000	     -0.00000000	      0.00000000	      0.00000000	     -6.63643434	     -2.64307083	    -11.26506308	     30.84038094	     41.39280568	      0.00000000	      5.16467747	     -2.82471512	     -5.00925689	     10.99412175	     27.19355027	     46.07801489	      0.00000000	      5.16467747
      0.20000000	      3.17157971	     -2.71013176	    168.97497906	      2.89959355	      0.89391847	      0.17029670	      1.65456790	      1.48671690	      8.93637922	      8.17584385	      0.14269539	     18.32535195	    -15.54880514	      0.00000000	      2.61966122	     -2.41901967	    -27.19650420	     15.09951189	      0.26353620	     20.91710772	      9.29230175	      0.00000000	     -0.00274146	     -0.18400525	      0.86178182	     -0.00509116	     -0.24472698	      0.91564318	     -0.00450394	     -0.44739036	      0.91564318	     -0.00313321	     -0.44739036	      0.75405909	     -0.00254572	     -0.37522350	      0.70019773	     -0.00156647	     -0.28502413	      0.64633636	     -0.01958194	     -2.08150416	      4.79297193	      0.00000000	      0.00000000	     -0.00000000	      0.00000000	      0.00000000	     -6.62972124	     -2.65372620	    -11.24652502	     30.84629881	     41.61597523	      0.00000000	      5.13494953	     -2.82522115	     -5.00628339	     10.99430467	     27.20491924	     46.05371550	      0.00000000	      5.13494953
      0.23333333	      3.17813554	     -2.71668707	    169.04133830	      2.89957845	      0.89392912	      0.17031379	      1.65998756	      1.48535680	      8.86048947	      8.18111136	      0.14278733	     18.34202415	    -15.53203070	      0.00000000	      2.63116707	     -2.41627686	    -27.09830677	     15.08519430	      0.26328631	     20.89438508	      9.33383185	      0.00000000	     -0.00117943	     -0.18587932	      0.85518341	     -0.00219033	     -0.24721950	      0.90863238	     -0.00193769	     -0.45194698	      0.90863238	     -0.00134798	     -0.45194698	      0.74828549	     -0.00109522	     -0.37904511	      0.69483652	     -0.00067393	     -0.28792707	      0.64138756	     -0.00842459	     -2.10270404	      4.75627359	      0.00000000	      0.00000000	     -0.00000000	      0.00000000	      0.00000000	     -6.63062044	     -2.62078948	    -11.28360617	     30.80717263	     41.64039778	      0.00000000	      5.13136434	     -2.80197968	     -4.98788306	     10.97918033	     27.18196182	     46.04177755	      0.00000000	      5.13136434
      0.26666667	      3.16822856	     -2.71545366	    168.98747862	      2.89957588	      0.89392326	      0.17024615	      1.65574481	      1.49428509	      9.04609281	      8.19339881	      0.14300179	     18.27959925	    -15.74002750	      0.00000000	      2.61197028	     -2.42850642	    -27.23887949	     15.09698743	      0.26349214	     20.91572386	      9.42790029	      0.00000000	     -0.00249831	     -0.18565358	      0.86115648	     -0.00463960	     -0.24691926	      0.91497876	     -0.00410447	     -0.45139812	      0.91497876	     -0.00285531	     -0.45139812	      0.75351192	     -0.00231993	     -0.37858478	      0.69968964	     -0.00142753	     -0.28757740	      0.64586736	     -0.01784515	     -2.10015045	      4.78949398	      0.00000000	      0.00000000	     -0.00000000	      0.00000000	      0.00000000	     -6.63871615	     -2.63329966	    -11.31494783	     30.84779020	     41.81598580	      0.00000000	      5.10100359	     -2.82504998	     -5.02849765	     11.02805443	     27.20183134	     46.01071257	      0.00000000	      5.10100359
      0.30000000	      3.16318357	     -2.72021139	    168.97553562	      2.89956855	      0.89392248	      0.17023782	      1.65804080	      1.49183279	      9.10966214	      8.20966505	      0.14328569	     18.25733904	    -15.80467257	      0.00000000	      2.60863390	     -2.40773348	    -27.13855100	     15.08739540	      0.26332473	     20.91153436	      9.28705034	      0.00000000	     -0.00290415	     -0.18618210	      0.86419926	     -0.00539330	     -0.24762219	      0.91821171	     -0.00477123	     -0.45268316	      0.91821171	     -0.00331915	     -0.45268316	      0.75617435	     -0.00269679	     -0.37966254	      0.70216190	     -0.00165943	     -0.28839607	      0.64814945	     -0.02074406	     -2.10612914	      4.80641703	      0.00000000	      0.00000000	     -0.00000000	      0.00000000	      0.00000000	     -6.63834111	     -2.63329627	    -11.35434185	     30.84408902	     42.06173123	      0.00000000	      5.07597492	     -2.82583328	     -5.02564164	     11.01873198	     27.21181096	     45.94783028	      0.00000000	      5.07597492
